<?xml version="1.0" encoding="UTF-8"?>
<svg xmlns="http://www.w3.org/2000/svg" viewBox="0 0 210 210">
  <circle fill="#f9fafb" cx="105" cy="105" r="105" />
  <circle fill="#1f2937" cx="134.5" cy="129.5" r="6" />
  <circle fill="#1f2937" cx="104" cy="170" r="6" />
  <circle fill="#1f2937" cx="50.8" cy="63.5" r="6" />
  <path fill="#1f2937" d="m176.7 38.5-18.6 18.3a71.6 71.6 0 0 1-42 117.8 13 13 0 0 1-24.3 0A71.6 71.6 0 0 1 40.4 71.4a13 13 0 0 1 10.4-21 12.9 12.9 0 0 1 4.9 1 71.6 71.6 0 0 1 96-1L170 31.7a97.8 97.8 0 1 0 6.8 6.8z" />
  <path fill="#1f2937" d="M116.3 165.3a62.5 62.5 0 0 0 35.2-102l-13.4 13.1a43.8 43.8 0 0 1 6.4 44.6 13 13 0 0 1-16.6 19.7 43.7 43.7 0 1 1 4.2-70.4l13.1-13.4a62.4 62.4 0 0 0-82.7.6 13 13 0 0 1 1.4 6 13.1 13.1 0 0 1-13 13 13.4 13.4 0 0 1-2.7-.2 62.5 62.5 0 0 0 43.5 89 13 13 0 0 1 24.6 0z" />
  <path fill="#1f2937" d="M112.2 101.9a7.9 7.9 0 0 1 .3 2.1 8.3 8.3 0 1 1-8.3-8.3 8.5 8.5 0 0 1 2.5.4l19.4-19.6a35.1 35.1 0 1 0-3.7 57.6 13 13 0 0 1 12.2-17.7 12.8 12.8 0 0 1 2.5.2 35.1 35.1 0 0 0-5-34.1z" />
</svg>
